<svg
    xmlns="http://www.w3.org/2000/svg"
    width="10"
    height="10"
    viewBox="0 0 10 10"
    fill="none"
>
    <path
        d="M7.05417 0H2.35139C1.05342 0 0 1.04872 0 2.34198V5.15424V5.62452C0 6.91779 1.05342 7.96651 2.35139 7.96651H3.05681C3.18378 7.96651 3.35308 8.05116 3.43303 8.15462L4.13844 9.09047C4.44883 9.50431 4.95673 9.50431 5.26711 9.09047L5.97253 8.15462C6.06188 8.03705 6.20296 7.96651 6.34875 7.96651H7.05417C8.35213 7.96651 9.40556 6.91779 9.40556 5.62452V2.34198C9.40556 1.04872 8.35213 0 7.05417 0ZM2.82167 4.70278C2.55831 4.70278 2.35139 4.49115 2.35139 4.2325C2.35139 3.97385 2.56301 3.76222 2.82167 3.76222C3.08032 3.76222 3.29194 3.97385 3.29194 4.2325C3.29194 4.49115 3.08502 4.70278 2.82167 4.70278ZM4.70278 4.70278C4.43942 4.70278 4.2325 4.49115 4.2325 4.2325C4.2325 3.97385 4.44413 3.76222 4.70278 3.76222C4.96143 3.76222 5.17306 3.97385 5.17306 4.2325C5.17306 4.49115 4.96613 4.70278 4.70278 4.70278ZM6.58389 4.70278C6.32053 4.70278 6.11361 4.49115 6.11361 4.2325C6.11361 3.97385 6.32524 3.76222 6.58389 3.76222C6.84254 3.76222 7.05417 3.97385 7.05417 4.2325C7.05417 4.49115 6.84724 4.70278 6.58389 4.70278Z"
        fill="#292D32"
    />
</svg>