<svg
    xmlns="http://www.w3.org/2000/svg"
    width="9"
    height="9"
    viewBox="0 0 9 9"
    fill="none"
>
    <path
        d="M6.02458 0.513184H2.46672C0.921306 0.513184 0 1.43449 0 2.97991V6.53352C0 8.08318 0.921306 9.00449 2.46672 9.00449H6.02033C7.56575 9.00449 8.48706 8.08318 8.48706 6.53776V2.97991C8.4913 1.43449 7.57 0.513184 6.02458 0.513184ZM3.79986 7.09819C3.67673 7.22131 3.44322 7.34019 3.2734 7.36566L2.22897 7.51426C2.19076 7.51851 2.15255 7.52275 2.11433 7.52275C1.94026 7.52275 1.77893 7.46332 1.6643 7.34868C1.52419 7.20858 1.46475 7.00478 1.49871 6.77977L1.64731 5.73533C1.67279 5.56126 1.78742 5.332 1.91479 5.20887L3.80835 3.31531C3.84231 3.40447 3.87628 3.49363 3.92298 3.59553C3.96544 3.68469 4.01214 3.77809 4.06309 3.863C4.10554 3.93518 4.15225 4.00311 4.19046 4.05406C4.23716 4.12623 4.29235 4.19416 4.32632 4.23237C4.34755 4.26209 4.36453 4.28332 4.37302 4.29181C4.47916 4.41918 4.60229 4.53806 4.70843 4.62722C4.73815 4.65694 4.75513 4.67392 4.76362 4.67817C4.82731 4.72912 4.89099 4.78006 4.94618 4.81827C5.01411 4.86922 5.08204 4.91592 5.15422 4.95413C5.23913 5.00508 5.33254 5.05178 5.42594 5.09849C5.52359 5.14094 5.61275 5.17915 5.70191 5.20887L3.79986 7.09819ZM6.52557 4.37248L6.13497 4.76733C6.10949 4.7928 6.07553 4.80554 6.04156 4.80554C6.02882 4.80554 6.01184 4.80554 6.00335 4.80129C5.14148 4.55504 4.45369 3.86725 4.20744 3.00538C4.1947 2.95868 4.20744 2.90773 4.24141 2.87801L4.63625 2.48317C5.28159 1.83783 5.89721 1.85056 6.52981 2.48317C6.85248 2.80584 7.00957 3.11577 7.00957 3.43844C7.00532 3.74412 6.84824 4.04981 6.52557 4.37248Z"
        fill="#292D32"
    />
</svg>