<svg xmlns="http://www.w3.org/2000/svg" width="17" height="17" viewBox="0 0 17 17" fill="none">
  <path d="M8.43119 0C3.7856 0 0 3.7856 0 8.43119C0 13.0768 3.7856 16.8624 8.43119 16.8624C13.0768 16.8624 16.8624 13.0768 16.8624 8.43119C16.8624 3.7856 13.0768 0 8.43119 0ZM11.2641 10.3704C11.5086 10.6149 11.5086 11.0196 11.2641 11.2641C11.1376 11.3905 10.9774 11.4496 10.8172 11.4496C10.657 11.4496 10.4968 11.3905 10.3704 11.2641L8.43119 9.3249L6.49202 11.2641C6.36555 11.3905 6.20536 11.4496 6.04516 11.4496C5.88497 11.4496 5.72478 11.3905 5.59831 11.2641C5.35381 11.0196 5.35381 10.6149 5.59831 10.3704L7.53748 8.43119L5.59831 6.49202C5.35381 6.24751 5.35381 5.84281 5.59831 5.59831C5.84281 5.35381 6.24751 5.35381 6.49202 5.59831L8.43119 7.53748L10.3704 5.59831C10.6149 5.35381 11.0196 5.35381 11.2641 5.59831C11.5086 5.84281 11.5086 6.24751 11.2641 6.49202L9.3249 8.43119L11.2641 10.3704Z" fill="#5F5E5E"/>
</svg>