<svg xmlns="http://www.w3.org/2000/svg" width="10" height="10" viewBox="0 0 10 10" fill="none">
  <path d="M6.9631 0H5.73953C4.2336 0 3.29239 0.941208 3.29239 2.44714V4.35309H6.23367C6.42661 4.35309 6.58662 4.51309 6.58662 4.70604C6.58662 4.89899 6.42661 5.059 6.23367 5.059H3.29239V6.96494C3.29239 8.47088 4.2336 9.41208 5.73953 9.41208H6.9584C8.46433 9.41208 9.40554 8.47088 9.40554 6.96494V2.44714C9.41025 0.941208 8.46904 0 6.9631 0Z" fill="#292D32"/>
  <path d="M1.20357 4.35292L2.17772 3.37879C2.24831 3.30819 2.28125 3.21878 2.28125 3.12936C2.28125 3.03995 2.24831 2.94583 2.17772 2.87994C2.04125 2.74347 1.81536 2.74347 1.67888 2.87994L0.102356 4.45645C-0.0341188 4.59293 -0.0341188 4.81882 0.102356 4.95529L1.67888 6.53181C1.81536 6.66829 2.04125 6.66829 2.17772 6.53181C2.3142 6.39534 2.3142 6.16945 2.17772 6.03297L1.20357 5.05882H3.29305V4.35292H1.20357Z" fill="#292D32"/>
</svg>