<svg
    xmlns="http://www.w3.org/2000/svg"
    width="10"
    height="10"
    viewBox="0 0 10 10"
    fill="none"
>
    <path
        d="M6.76459 0.197505L2.26732 1.69162C-0.755773 2.70264 -0.755773 4.35116 2.26732 5.3572L3.60206 5.80045L4.0453 7.1352C5.05134 10.1583 6.70482 10.1583 7.71086 7.1352L9.20996 2.64287C9.87733 0.625818 8.78164 -0.474847 6.76459 0.197505ZM6.92396 2.87695L5.03141 4.77947C4.95671 4.85418 4.86208 4.88904 4.76745 4.88904C4.67283 4.88904 4.5782 4.85418 4.50349 4.77947C4.35906 4.63504 4.35906 4.39598 4.50349 4.25155L6.39604 2.34903C6.54047 2.2046 6.77953 2.2046 6.92396 2.34903C7.06839 2.49346 7.06839 2.73252 6.92396 2.87695Z"
        fill="#292D32"
    />
</svg>