<svg
			xmlns="http://www.w3.org/2000/svg"
			width="135"
			height="135"
			viewBox="0 0 135 135"
			fill="none"
		>
			<path
				d="M3 30.1691C3 10.7624 10.7627 3 30.1694 3H53.4574C72.8641 3 80.6268 10.7624 80.6268 30.1691V54.7512C62.5786 55.0746 55.0746 62.5786 54.7512 80.6268H30.1694C10.7627 80.6268 3 72.8641 3 53.4577"
				stroke="#333333"
				stroke-width="4.41857"
				stroke-linecap="round"
				stroke-linejoin="round"
			/>
			<path
				d="M35.0807 28.0351C31.6522 25.7063 27.124 25.7065 23.6954 28.1646"
				stroke="#333333"
				stroke-width="4.41857"
				stroke-miterlimit="10"
				stroke-linecap="round"
				stroke-linejoin="round"
			/>
			<path
				d="M60.9561 28.0351C57.5276 25.7063 52.9995 25.7065 49.571 28.1646"
				stroke="#333333"
				stroke-width="4.41857"
				stroke-miterlimit="10"
				stroke-linecap="round"
				stroke-linejoin="round"
			/>
			<path
				d="M42.8535 63.9379H27.8456C25.905 63.9379 24.3524 62.3854 24.3524 60.4447C24.3524 50.806 32.1798 42.979 41.8184 42.979C45.9585 42.979 49.7752 44.402 52.7509 46.7955"
				stroke="#333333"
				stroke-width="4.41857"
				stroke-miterlimit="10"
				stroke-linecap="round"
				stroke-linejoin="round"
			/>
			<path
				d="M132.378 105.208C132.378 124.615 124.615 132.378 105.209 132.378H81.9207C62.514 132.378 54.7513 124.615 54.7513 105.208V80.6266C55.0747 62.5783 62.5787 55.0744 80.6269 54.751H105.209C124.615 54.751 132.378 62.5137 132.378 81.9204"
				stroke="#333333"
				stroke-width="4.41857"
				stroke-linecap="round"
				stroke-linejoin="round"
			/>
			<path
				d="M86.8318 78.1694C83.4033 80.4982 78.875 80.4982 75.4465 78.04"
				stroke="#333333"
				stroke-width="4.41857"
				stroke-miterlimit="10"
				stroke-linecap="round"
				stroke-linejoin="round"
			/>
			<path
				d="M112.708 78.1694C109.279 80.4982 104.751 80.4982 101.322 78.04"
				stroke="#333333"
				stroke-width="4.41857"
				stroke-miterlimit="10"
				stroke-linecap="round"
				stroke-linejoin="round"
			/>
			<path
				d="M79.5968 94.73H107.542C109.483 94.73 111.036 96.2819 111.036 98.2225C111.036 107.861 103.208 115.689 93.5696 115.689C83.9309 115.689 76.1036 107.861 76.1036 98.2225C76.1036 96.2819 77.6561 94.73 79.5968 94.73Z"
				stroke="#333333"
				stroke-width="4.41857"
				stroke-miterlimit="10"
				stroke-linecap="round"
				stroke-linejoin="round"
			/>
		</svg>