<svg xmlns="http://www.w3.org/2000/svg" width="74" height="74" viewBox="0 0 74 74" fill="none">
  <path d="M36.8857 0C16.5617 0 0 16.5617 0 36.8857C0 57.2098 16.5617 73.7715 36.8857 73.7715C57.2098 73.7715 73.7715 57.2098 73.7715 36.8857C73.7715 16.5617 57.2098 0 36.8857 0ZM49.2794 45.3695C50.349 46.4392 50.349 48.2097 49.2794 49.2794C48.7261 49.8326 48.0252 50.0908 47.3244 50.0908C46.6236 50.0908 45.9228 49.8326 45.3695 49.2794L36.8857 40.7956L28.402 49.2794C27.8487 49.8326 27.1479 50.0908 26.4471 50.0908C25.7462 50.0908 25.0454 49.8326 24.4921 49.2794C23.4224 48.2097 23.4224 46.4392 24.4921 45.3695L32.9759 36.8857L24.4921 28.402C23.4224 27.3323 23.4224 25.5618 24.4921 24.4921C25.5618 23.4224 27.3323 23.4224 28.402 24.4921L36.8857 32.9759L45.3695 24.4921C46.4392 23.4224 48.2097 23.4224 49.2794 24.4921C50.349 25.5618 50.349 27.3323 49.2794 28.402L40.7956 36.8857L49.2794 45.3695Z" fill="#C646AA"/>
</svg>