<svg xmlns="http://www.w3.org/2000/svg" width="76" height="76" viewBox="0 0 76 76" fill="none">
  <path d="M37.9142 0C17.0235 0 0 17.0235 0 37.9142C0 58.8049 17.0235 75.8283 37.9142 75.8283C58.8049 75.8283 75.8283 58.8049 75.8283 37.9142C75.8283 17.0235 58.8049 0 37.9142 0ZM56.0371 29.1939L34.5398 50.6912C34.009 51.222 33.2886 51.5253 32.5303 51.5253C31.7721 51.5253 31.0517 51.222 30.5209 50.6912L19.7912 39.9615C18.6917 38.862 18.6917 37.0421 19.7912 35.9426C20.8907 34.8431 22.7106 34.8431 23.8101 35.9426L32.5303 44.6629L52.0182 25.175C53.1177 24.0755 54.9376 24.0755 56.0371 25.175C57.1366 26.2745 57.1366 28.0565 56.0371 29.1939Z" fill="#58BCDB"/>
</svg>